<?xml version="1.0" standalone="no"?>
<!DOCTYPE svg PUBLIC "-//W3C//DTD SVG 20010904//EN"
 "http://www.w3.org/TR/2001/REC-SVG-20010904/DTD/svg10.dtd">
<svg version="1.0" xmlns="http://www.w3.org/2000/svg"
 width="225.000000pt" height="225.000000pt" viewBox="0 0 225.000000 225.000000"
 preserveAspectRatio="xMidYMid meet">

<g transform="translate(0.000000,225.000000) scale(0.100000,-0.100000)"
fill="#000000" stroke="none">
<path d="M0 1125 l0 -1125 1125 0 1125 0 0 1125 0 1125 -1125 0 -1125 0 0
-1125z m880 106 c37 -26 63 -85 56 -126 -22 -113 -171 -149 -233 -56 -81 120
59 264 177 182z m617 12 c97 -46 97 -190 0 -236 -46 -22 -85 -21 -124 3 -90
55 -93 168 -4 227 40 27 80 29 128 6z m-1205 -60 l68 -67 0 67 c0 65 1 67 25
67 l25 0 0 -125 c0 -69 -2 -125 -4 -125 -2 0 -36 33 -75 73 l-71 72 0 -72 c0
-71 -1 -73 -25 -73 l-25 0 0 125 c0 69 3 125 7 125 4 0 38 -30 75 -67z m348
42 c0 -26 0 -26 -82 -23 -76 3 -81 4 -83 26 -2 21 1 22 82 22 82 0 83 0 83
-25z m431 -21 l48 -47 53 47 c29 25 58 46 65 46 10 0 13 -32 13 -130 l0 -130
-30 0 -30 0 0 76 0 75 -35 -27 -36 -27 -34 33 -35 34 0 -82 c0 -81 0 -82 -25
-82 l-25 0 0 130 c0 95 3 130 12 130 7 0 34 -21 59 -46z m602 -23 l32 -69 32
69 c29 63 34 69 62 69 l30 0 -23 -52 c-77 -171 -97 -211 -106 -202 -5 5 -33
64 -64 132 l-54 122 30 0 c27 0 32 -6 61 -69z m367 44 c0 -25 -1 -25 -85 -25
-84 0 -85 0 -85 25 0 25 1 25 85 25 84 0 85 0 85 -25z m-50 -95 l0 -30 -60 0
-60 0 0 30 0 30 60 0 60 0 0 -30z m-1400 -5 c0 -25 -2 -26 -57 -23 -50 3 -57
5 -58 26 -2 20 2 22 57 22 56 0 58 -1 58 -25z m50 -100 c0 -25 -1 -25 -83 -25
-81 0 -84 1 -81 23 1 12 3 23 3 25 1 1 37 2 81 2 79 0 80 0 80 -25z m1400 -5
l0 -30 -85 0 -85 0 0 30 0 30 85 0 85 0 0 -30z"/>
<path d="M775 1199 c-30 -17 -45 -40 -45 -70 0 -41 9 -58 41 -75 55 -28 113 9
113 72 0 57 -63 99 -109 73z"/>
<path d="M1381 1174 c-12 -15 -21 -37 -21 -49 0 -35 37 -75 70 -75 43 0 61 10
75 43 15 36 3 82 -25 97 -35 19 -77 12 -99 -16z"/>
</g>
</svg>
